<svg width="6" height="8" viewBox="0 0 6 8" fill="none" xmlns="http://www.w3.org/2000/svg">
<path d="M4.88666 3.52655L2.05999 0.699884C1.99802 0.637399 1.92428 0.587802 1.84304 0.553957C1.7618 0.520111 1.67467 0.502686 1.58666 0.502686C1.49865 0.502686 1.41151 0.520111 1.33027 0.553957C1.24904 0.587802 1.1753 0.637399 1.11333 0.699884C0.989158 0.824793 0.919464 0.993761 0.919464 1.16988C0.919464 1.34601 0.989158 1.51498 1.11333 1.63988L3.47333 3.99988L1.11333 6.35988C0.989158 6.48479 0.919464 6.65376 0.919464 6.82988C0.919464 7.00601 0.989158 7.17498 1.11333 7.29988C1.17562 7.36167 1.2495 7.41056 1.33072 7.44373C1.41195 7.47691 1.49892 7.49372 1.58666 7.49322C1.6744 7.49372 1.76137 7.47691 1.8426 7.44373C1.92382 7.41056 1.9977 7.36167 2.05999 7.29988L4.88666 4.47322C4.94915 4.41124 4.99874 4.33751 5.03259 4.25627C5.06643 4.17503 5.08386 4.08789 5.08386 3.99988C5.08386 3.91188 5.06643 3.82474 5.03259 3.7435C4.99874 3.66226 4.94915 3.58853 4.88666 3.52655Z" fill="#29384E"/>
</svg>
