<svg width="31" height="31" viewBox="0 0 31 31" fill="none" xmlns="http://www.w3.org/2000/svg">
<path d="M25 18.9999C24.1137 19.0058 23.2398 19.2079 22.441 19.5918C21.6422 19.9756 20.9383 20.5316 20.38 21.2199L12.73 17.6949C13.0897 16.5935 13.0897 15.4063 12.73 14.3049L20.38 10.7799C21.2824 11.8689 22.5405 12.604 23.9322 12.8557C25.3239 13.1073 26.7598 12.8593 27.9864 12.1553C29.213 11.4513 30.1515 10.3366 30.6363 9.00804C31.1211 7.67944 31.1209 6.2223 30.6359 4.89379C30.1509 3.56527 29.2122 2.45079 27.9855 1.74703C26.7587 1.04327 25.3228 0.795468 23.9311 1.04736C22.5395 1.29926 21.2815 2.03466 20.3793 3.12377C19.4771 4.21288 18.9885 5.58569 19 6.99993C19.0045 7.35728 19.0396 7.71358 19.105 8.06493L11.185 11.7099C10.3406 10.8843 9.27135 10.3262 8.11119 10.1056C6.95103 9.88494 5.75156 10.0116 4.66306 10.4696C3.57455 10.9277 2.64542 11.6968 1.99208 12.6805C1.33874 13.6643 0.990234 14.819 0.990234 15.9999C0.990234 17.1809 1.33874 18.3356 1.99208 19.3193C2.64542 20.3031 3.57455 21.0722 4.66306 21.5302C5.75156 21.9883 6.95103 22.1149 8.11119 21.8943C9.27135 21.6737 10.3406 21.1156 11.185 20.2899L19.105 23.9349C19.0396 24.2863 19.0045 24.6426 19 24.9999C19 26.1866 19.3519 27.3467 20.0112 28.3333C20.6705 29.32 21.6075 30.0891 22.7039 30.5432C23.8002 30.9973 25.0066 31.1162 26.1705 30.8846C27.3344 30.6531 28.4035 30.0817 29.2426 29.2426C30.0817 28.4035 30.6532 27.3344 30.8847 26.1705C31.1162 25.0066 30.9974 23.8002 30.5433 22.7038C30.0891 21.6075 29.3201 20.6704 28.3334 20.0111C27.3467 19.3518 26.1867 18.9999 25 18.9999ZM25 3.99993C25.5933 3.99993 26.1733 4.17588 26.6667 4.50552C27.16 4.83516 27.5446 5.3037 27.7716 5.85188C27.9987 6.40006 28.0581 7.00326 27.9423 7.5852C27.8266 8.16714 27.5409 8.70169 27.1213 9.12125C26.7017 9.54081 26.1672 9.82653 25.5853 9.94228C25.0033 10.058 24.4001 9.99863 23.8519 9.77157C23.3038 9.5445 22.8352 9.15999 22.5056 8.66664C22.1759 8.17329 22 7.59327 22 6.99993C22 6.20428 22.3161 5.44122 22.8787 4.87861C23.4413 4.316 24.2043 3.99993 25 3.99993V3.99993ZM6.99998 18.9999C6.40664 18.9999 5.82662 18.824 5.33327 18.4943C4.83992 18.1647 4.45541 17.6962 4.22834 17.148C4.00128 16.5998 3.94187 15.9966 4.05763 15.4147C4.17338 14.8327 4.4591 14.2982 4.87866 13.8786C5.29822 13.4591 5.83277 13.1733 6.41471 13.0576C6.99665 12.9418 7.59985 13.0012 8.14803 13.2283C8.69621 13.4554 9.16475 13.8399 9.49439 14.3332C9.82403 14.8266 9.99998 15.4066 9.99998 15.9999C9.99998 16.7956 9.68391 17.5586 9.1213 18.1212C8.55869 18.6839 7.79563 18.9999 6.99998 18.9999ZM25 27.9999C24.4066 27.9999 23.8266 27.824 23.3333 27.4943C22.8399 27.1647 22.4554 26.6962 22.2283 26.148C22.0013 25.5998 21.9419 24.9966 22.0576 24.4147C22.1734 23.8327 22.4591 23.2982 22.8787 22.8786C23.2982 22.4591 23.8328 22.1733 24.4147 22.0576C24.9967 21.9418 25.5999 22.0012 26.148 22.2283C26.6962 22.4554 27.1647 22.8399 27.4944 23.3332C27.824 23.8266 28 24.4066 28 24.9999C28 25.7956 27.6839 26.5586 27.1213 27.1212C26.5587 27.6839 25.7956 27.9999 25 27.9999Z" fill="#546071"/>
</svg>
