<svg width="44" height="44" viewBox="0 0 44 44" fill="none" xmlns="http://www.w3.org/2000/svg">
<circle cx="22" cy="22" r="22" fill="#007AFF"/>
<path d="M29.8899 19.55C29.8068 19.3851 29.6796 19.2464 29.5225 19.1494C29.3654 19.0523 29.1845 19.0006 28.9999 19H23.9999V13C24.0106 12.7807 23.9488 12.564 23.8241 12.3832C23.6994 12.2025 23.5187 12.0679 23.3099 12C23.1091 11.934 22.8925 11.9332 22.6913 11.9979C22.4901 12.0626 22.3145 12.1894 22.1899 12.36L14.1899 23.36C14.0896 23.5049 14.0294 23.6737 14.0154 23.8493C14.0013 24.0249 14.0339 24.2011 14.1099 24.36C14.1798 24.5418 14.3012 24.6992 14.4594 24.8129C14.6175 24.9266 14.8053 24.9916 14.9999 25H19.9999V31C20 31.2109 20.0668 31.4164 20.1908 31.587C20.3147 31.7576 20.4894 31.8847 20.6899 31.95C20.7903 31.9812 20.8947 31.998 20.9999 32C21.1576 32.0005 21.3133 31.9635 21.4541 31.8923C21.5948 31.821 21.7168 31.7174 21.8099 31.59L29.8099 20.59C29.9176 20.4408 29.9821 20.2648 29.9962 20.0813C30.0103 19.8978 29.9735 19.714 29.8899 19.55ZM21.9999 27.92V24C21.9999 23.7348 21.8945 23.4805 21.707 23.2929C21.5194 23.1054 21.2651 23 20.9999 23H16.9999L21.9999 16.08V20C21.9999 20.2653 22.1052 20.5196 22.2928 20.7071C22.4803 20.8947 22.7346 21 22.9999 21H26.9999L21.9999 27.92Z" fill="white"/>
</svg>
