<svg width="44" height="44" viewBox="0 0 44 44" fill="none" xmlns="http://www.w3.org/2000/svg">
<circle cx="22" cy="22" r="22" fill="#F34848"/>
<path d="M18.4678 18.3945L18.4656 18.3963L18.4634 18.3984L18.4678 18.3945ZM28.4219 18.208C28.3523 18.1409 28.2751 18.0823 28.1919 18.0332C28.0741 17.9638 27.9433 17.9194 27.8076 17.9026C27.672 17.8858 27.5343 17.897 27.4031 17.9356C27.272 17.9741 27.1501 18.0391 27.0451 18.1266C26.9401 18.2142 26.8541 18.3223 26.7925 18.4443C26.448 19.123 25.9729 19.727 25.3945 20.2217C25.483 19.7233 25.5276 19.2181 25.5278 18.7119C25.5297 17.172 25.1234 15.6591 24.3505 14.3272C23.5775 12.9954 22.4654 11.8922 21.1274 11.1299C20.98 11.0463 20.8138 11.0016 20.6444 10.9999C20.475 10.9981 20.3079 11.0395 20.1588 11.12C20.0098 11.2006 19.8836 11.3176 19.7922 11.4603C19.7008 11.6029 19.6471 11.7665 19.6362 11.9356C19.5802 12.8837 19.3324 13.8107 18.9076 14.6602C18.4828 15.5098 17.89 16.2642 17.165 16.8779L16.9346 17.0654C16.1765 17.5755 15.5055 18.2043 14.9473 18.9277C14.0796 20.0208 13.4785 21.3011 13.1917 22.6669C12.9049 24.0327 12.9403 25.4466 13.2951 26.7964C13.6498 28.1462 14.3142 29.3947 15.2354 30.4431C16.1567 31.4914 17.3096 32.3107 18.6026 32.8359C18.7544 32.898 18.9191 32.9217 19.0823 32.905C19.2454 32.8883 19.402 32.8317 19.5381 32.7402C19.6742 32.6488 19.7857 32.5252 19.8628 32.3804C19.9399 32.2357 19.9801 32.0741 19.98 31.9101C19.9793 31.8041 19.9625 31.6987 19.9302 31.5976C19.7065 30.7567 19.6421 29.8813 19.7403 29.0166C20.6865 30.8013 22.2054 32.216 24.0528 33.0332C24.2783 33.1341 24.5332 33.1476 24.7681 33.0713C26.2277 32.6002 27.5425 31.7637 28.5878 30.6413C29.633 29.5189 30.3739 28.1479 30.74 26.6586C31.1061 25.1692 31.0853 23.611 30.6796 22.1319C30.2739 20.6528 29.4967 19.3021 28.4219 18.208ZM24.5171 31.039C23.6454 30.5973 22.8765 29.977 22.2603 29.2185C21.6441 28.46 21.1944 27.5804 20.9405 26.6367C20.8629 26.319 20.8029 25.9972 20.7608 25.6728C20.7322 25.4663 20.6398 25.2738 20.4965 25.1224C20.3532 24.9709 20.1661 24.868 19.9615 24.8281C19.8984 24.8157 19.8343 24.8095 19.77 24.8096C19.5943 24.8095 19.4216 24.8558 19.2694 24.9437C19.1173 25.0317 18.991 25.1582 18.9033 25.3106C18.0736 26.7417 17.6563 28.3746 17.6978 30.0283C16.968 29.4609 16.3581 28.7543 15.9034 27.9495C15.4488 27.1447 15.1584 26.2576 15.049 25.3397C14.9397 24.4218 15.0137 23.4914 15.2666 22.6023C15.5195 21.7131 15.9464 20.8831 16.5225 20.1602C16.9599 19.592 17.4876 19.0995 18.0845 18.7022C18.1103 18.6855 18.1351 18.6672 18.1587 18.6475C18.1587 18.6475 18.4554 18.402 18.4655 18.3964C19.8902 17.1913 20.9035 15.5719 21.3643 13.7637C22.4538 14.7709 23.1804 16.1097 23.431 17.5722C23.6817 19.0347 23.4425 20.539 22.7505 21.8516C22.6591 22.0267 22.6216 22.225 22.6427 22.4215C22.6639 22.6179 22.7427 22.8037 22.8693 22.9554C22.9959 23.107 23.1646 23.2178 23.3541 23.2737C23.5436 23.3297 23.7454 23.3282 23.9341 23.2696C25.4659 22.7894 26.8138 21.8515 27.7964 20.5821C28.3869 21.4544 28.773 22.4487 28.9259 23.4909C29.0787 24.5332 28.9944 25.5965 28.6792 26.6016C28.364 27.6068 27.826 28.5278 27.1054 29.2961C26.3847 30.0644 25.5 30.6602 24.5171 31.0391L24.5171 31.039Z" fill="white"/>
</svg>
