<svg width="22" height="22" viewBox="0 0 22 22" fill="none" xmlns="http://www.w3.org/2000/svg">
<path fill-rule="evenodd" clip-rule="evenodd" d="M20.8909 19.3436C21.0891 19.5488 21.1998 19.8229 21.1998 20.1082C21.1998 20.3934 21.0891 20.6676 20.8909 20.8727L20.8891 20.8746C20.7869 20.9777 20.6653 21.0596 20.5313 21.1154C20.3973 21.1713 20.2536 21.2001 20.1084 21.2001C19.9633 21.2001 19.8196 21.1713 19.6856 21.1154C19.5517 21.0596 19.4301 20.9778 19.328 20.8748L14.1437 15.6881C12.5114 16.9412 10.4697 17.5439 8.41496 17.3748C6.30056 17.2007 4.3332 16.2226 2.91737 14.6415C1.50155 13.0604 0.744884 10.9965 0.802912 8.87432C0.860939 6.7521 1.72925 4.73275 3.22936 3.23151C4.72947 1.73026 6.74735 0.861233 8.86809 0.803158C10.9888 0.745083 13.0512 1.50238 14.6311 2.91929C16.211 4.33619 17.1884 6.305 17.3623 8.42087C17.5313 10.4769 16.9291 12.52 15.677 14.1536L20.8909 19.3436ZM5.72695 14.1931C6.72947 14.8634 7.9081 15.2212 9.11379 15.2212C10.7306 15.2212 12.2812 14.5785 13.4244 13.4343C14.5677 12.2902 15.21 10.7383 15.21 9.1202C15.21 7.91349 14.8525 6.7339 14.1826 5.73059C13.5127 4.72727 12.5606 3.94531 11.4467 3.48355C10.3328 3.0218 9.10703 2.90099 7.9245 3.13638C6.74197 3.37178 5.65573 3.95283 4.80314 4.80606C3.95055 5.6593 3.36992 6.7464 3.13468 7.92992C2.89944 9.11343 3.02017 10.3402 3.4816 11.455C3.94303 12.5699 4.72443 13.5227 5.72695 14.1931Z" fill="#7F8895"/>
</svg>
