<svg width="48" height="48" viewBox="0 0 48 48" fill="none" xmlns="http://www.w3.org/2000/svg">
<circle cx="24" cy="24" r="24" fill="#546071"/>
<path d="M29.34 17.46C29.1027 17.46 28.8707 17.5304 28.6733 17.6622C28.476 17.7941 28.3222 17.9815 28.2313 18.2008C28.1405 18.4201 28.1168 18.6613 28.1631 18.8941C28.2094 19.1269 28.3236 19.3407 28.4915 19.5085C28.6593 19.6764 28.8731 19.7906 29.1059 19.8369C29.3387 19.8832 29.5799 19.8595 29.7992 19.7687C30.0185 19.6778 30.2059 19.524 30.3378 19.3267C30.4696 19.1293 30.54 18.8973 30.54 18.66C30.54 18.3417 30.4136 18.0365 30.1885 17.8115C29.9635 17.5864 29.6583 17.46 29.34 17.46ZM33.94 19.88C33.9206 19.0503 33.7652 18.2294 33.48 17.45C33.2257 16.7831 32.83 16.1793 32.32 15.68C31.8248 15.1674 31.2196 14.7742 30.55 14.53C29.7727 14.2362 28.9508 14.0772 28.12 14.06C27.06 14 26.72 14 24 14C21.28 14 20.94 14 19.88 14.06C19.0492 14.0772 18.2273 14.2362 17.45 14.53C16.7817 14.7766 16.1769 15.1696 15.68 15.68C15.1674 16.1752 14.7742 16.7804 14.53 17.45C14.2362 18.2273 14.0772 19.0492 14.06 19.88C14 20.94 14 21.28 14 24C14 26.72 14 27.06 14.06 28.12C14.0772 28.9508 14.2362 29.7727 14.53 30.55C14.7742 31.2196 15.1674 31.8248 15.68 32.32C16.1769 32.8304 16.7817 33.2234 17.45 33.47C18.2273 33.7638 19.0492 33.9228 19.88 33.94C20.94 34 21.28 34 24 34C26.72 34 27.06 34 28.12 33.94C28.9508 33.9228 29.7727 33.7638 30.55 33.47C31.2196 33.2258 31.8248 32.8326 32.32 32.32C32.8322 31.8226 33.2283 31.2182 33.48 30.55C33.7652 29.7706 33.9206 28.9497 33.94 28.12C33.94 27.06 34 26.72 34 24C34 21.28 34 20.94 33.94 19.88ZM32.14 28C32.1327 28.6348 32.0178 29.2637 31.8 29.86C31.6403 30.2952 31.3839 30.6884 31.05 31.01C30.7256 31.3405 30.3332 31.5964 29.9 31.76C29.3037 31.9778 28.6748 32.0927 28.04 32.1C27.04 32.15 26.67 32.16 24.04 32.16C21.41 32.16 21.04 32.16 20.04 32.1C19.3809 32.1123 18.7246 32.0109 18.1 31.8C17.6858 31.6281 17.3114 31.3728 17 31.05C16.6681 30.7287 16.4148 30.3352 16.26 29.9C16.0159 29.2952 15.8804 28.6519 15.86 28C15.86 27 15.8 26.63 15.8 24C15.8 21.37 15.8 21 15.86 20C15.8645 19.3511 15.983 18.7079 16.21 18.1C16.386 17.6779 16.6563 17.3017 17 17C17.3038 16.6562 17.6793 16.3831 18.1 16.2C18.7096 15.98 19.352 15.8651 20 15.86C21 15.86 21.37 15.8 24 15.8C26.63 15.8 27 15.8 28 15.86C28.6348 15.8673 29.2637 15.9822 29.86 16.2C30.3144 16.3687 30.7223 16.6428 31.05 17C31.3777 17.3072 31.6338 17.6827 31.8 18.1C32.0223 18.7089 32.1373 19.3518 32.14 20C32.19 21 32.2 21.37 32.2 24C32.2 26.63 32.19 27 32.14 28ZM24 18.87C22.9858 18.872 21.995 19.1745 21.1527 19.7394C20.3103 20.3043 19.6544 21.1062 19.2676 22.0438C18.8809 22.9813 18.7807 24.0125 18.9798 25.0069C19.1789 26.0014 19.6682 26.9145 20.3861 27.631C21.1039 28.3474 22.018 28.835 23.0129 29.0321C24.0077 29.2293 25.0387 29.1271 25.9755 28.7385C26.9123 28.35 27.7129 27.6924 28.2761 26.849C28.8394 26.0056 29.14 25.0142 29.14 24C29.1413 23.3251 29.0092 22.6566 28.7512 22.033C28.4933 21.4093 28.1146 20.8428 27.6369 20.3661C27.1592 19.8893 26.5919 19.5117 25.9678 19.2549C25.3436 18.9982 24.6749 18.8674 24 18.87ZM24 27.33C23.3414 27.33 22.6976 27.1347 22.15 26.7688C21.6023 26.4029 21.1755 25.8828 20.9235 25.2743C20.6714 24.6659 20.6055 23.9963 20.734 23.3503C20.8625 22.7044 21.1796 22.111 21.6453 21.6453C22.111 21.1796 22.7044 20.8625 23.3503 20.734C23.9963 20.6055 24.6659 20.6714 25.2743 20.9235C25.8828 21.1755 26.4029 21.6023 26.7688 22.15C27.1347 22.6976 27.33 23.3414 27.33 24C27.33 24.4373 27.2439 24.8703 27.0765 25.2743C26.9092 25.6784 26.6639 26.0454 26.3547 26.3547C26.0454 26.6639 25.6784 26.9092 25.2743 27.0765C24.8703 27.2439 24.4373 27.33 24 27.33Z" fill="white"/>
</svg>
