<svg width="48" height="48" viewBox="0 0 48 48" fill="none" xmlns="http://www.w3.org/2000/svg">
<circle cx="24" cy="24" r="24" fill="#546071"/>
<path d="M32.4701 13.9999H15.5301C15.3396 13.9973 15.1506 14.0321 14.9736 14.1026C14.7967 14.173 14.6354 14.2776 14.4989 14.4104C14.3624 14.5432 14.2533 14.7016 14.1781 14.8765C14.1028 15.0514 14.0627 15.2395 14.0601 15.4299V32.5699C14.0627 32.7603 14.1028 32.9484 14.1781 33.1233C14.2533 33.2982 14.3624 33.4566 14.4989 33.5894C14.6354 33.7222 14.7967 33.8268 14.9736 33.8972C15.1506 33.9676 15.3396 34.0025 15.5301 33.9999H32.4701C32.6605 34.0025 32.8496 33.9676 33.0265 33.8972C33.2034 33.8268 33.3648 33.7222 33.5013 33.5894C33.6378 33.4566 33.7468 33.2982 33.8221 33.1233C33.8974 32.9484 33.9375 32.7603 33.9401 32.5699V15.4299C33.9375 15.2395 33.8974 15.0514 33.8221 14.8765C33.7468 14.7016 33.6378 14.5432 33.5013 14.4104C33.3648 14.2776 33.2034 14.173 33.0265 14.1026C32.8496 14.0321 32.6605 13.9973 32.4701 13.9999ZM20.0901 30.7399H17.0901V21.7399H20.0901V30.7399ZM18.5901 20.4799C18.1763 20.4799 17.7795 20.3155 17.487 20.023C17.1944 19.7304 17.0301 19.3336 17.0301 18.9199C17.0301 18.5062 17.1944 18.1094 17.487 17.8168C17.7795 17.5243 18.1763 17.3599 18.5901 17.3599C18.8098 17.335 19.0322 17.3567 19.2429 17.4238C19.4536 17.4908 19.6478 17.6016 19.8127 17.7489C19.9776 17.8961 20.1096 18.0766 20.1999 18.2784C20.2903 18.4802 20.337 18.6988 20.337 18.9199C20.337 19.141 20.2903 19.3596 20.1999 19.5614C20.1096 19.7632 19.9776 19.9437 19.8127 20.0909C19.6478 20.2382 19.4536 20.349 19.2429 20.416C19.0322 20.483 18.8098 20.5048 18.5901 20.4799ZM30.9101 30.7399H27.9101V25.9099C27.9101 24.6999 27.4801 23.9099 26.3901 23.9099C26.0527 23.9124 25.7242 24.0182 25.4489 24.2131C25.1735 24.408 24.9645 24.6826 24.8501 24.9999C24.7718 25.2349 24.7379 25.4825 24.7501 25.7299V30.7299H21.7501C21.7501 30.7299 21.7501 22.5499 21.7501 21.7299H24.7501V22.9999C25.0226 22.527 25.419 22.1374 25.8965 21.8731C26.374 21.6088 26.9146 21.4797 27.4601 21.4999C29.4601 21.4999 30.9101 22.7899 30.9101 25.5599V30.7399Z" fill="white"/>
</svg>
