<svg width="48" height="48" viewBox="0 0 48 48" fill="none" xmlns="http://www.w3.org/2000/svg">
<circle cx="24" cy="24" r="24" fill="#546071"/>
<path d="M35 21.71C35.0495 20.2786 34.7365 18.858 34.09 17.58C33.6514 17.0556 33.0427 16.7017 32.37 16.58C29.5875 16.3275 26.7936 16.224 24 16.27C21.2167 16.2219 18.4327 16.3221 15.66 16.57C15.1118 16.6697 14.6045 16.9268 14.2 17.31C13.3 18.14 13.2 19.56 13.1 20.76C12.9549 22.9175 12.9549 25.0824 13.1 27.24C13.129 27.9154 13.2295 28.5858 13.4 29.24C13.5206 29.745 13.7645 30.2123 14.11 30.6C14.5173 31.0034 15.0364 31.2752 15.6 31.38C17.7559 31.6461 19.9282 31.7564 22.1 31.71C25.6 31.76 28.67 31.71 32.3 31.43C32.8775 31.3316 33.4112 31.0595 33.83 30.65C34.11 30.3699 34.3191 30.0271 34.44 29.65C34.7977 28.5526 34.9733 27.4041 34.96 26.25C35 25.69 35 22.31 35 21.71ZM21.74 26.85V20.66L27.66 23.77C26 24.69 23.81 25.73 21.74 26.85Z" fill="white"/>
</svg>
