<svg width="173" height="42" viewBox="0 0 173 42" fill="none" xmlns="http://www.w3.org/2000/svg">
<circle cx="21" cy="21" r="20.25" stroke="white" stroke-width="1.5"/>
<path d="M19.5945 15.4726C18.1262 14.8425 16.4766 14.8425 15.0083 15.4726C14.9136 15.5141 14.8188 15.5585 14.724 15.6042C14.4952 15.718 14.2736 15.847 14.0606 15.9905C13.7021 16.2317 13.3693 16.5119 13.0678 16.8265L8.97225 21.0919C8.35001 21.7396 8 22.6192 8 23.5355C8 25.4307 9.4973 26.9902 11.3169 26.9902C11.3173 26.9902 11.3177 26.9902 11.3181 26.9902C11.3582 26.9902 11.3983 26.9902 11.4384 26.9879C10.4603 26.6141 9.80628 25.6386 9.80628 24.5533C9.80628 23.8441 10.0856 23.1651 10.5786 22.6758L14.0032 19.1099L14.3664 18.7299L14.4893 18.6019L14.629 18.4562C14.7143 18.3684 14.8026 18.2846 14.894 18.2048C16.3094 16.9182 18.1265 16.2099 20.0051 16.2123C20.3113 16.2121 20.6171 16.2306 20.9212 16.2675C20.5137 15.9441 20.0677 15.677 19.5945 15.4726ZM33.4739 17.1575C32.7887 15.4015 30.8384 14.5428 29.1518 15.2545L29.1092 15.2729C28.9353 15.349 28.7681 15.4406 28.6094 15.5467C28.4083 15.6808 28.2218 15.8372 28.0531 16.0132L25.5475 18.6233L25.1858 18.9987C25.1747 19.0099 25.1637 19.0211 25.1523 19.0316C24.7188 19.4473 24.0385 19.4326 23.6218 18.9987L21.6996 16.9966C20.262 16.6375 18.7528 16.7448 17.3753 17.3039C18.3515 17.3212 19.2837 17.7346 19.9723 18.4555L23.2964 21.9174C23.9045 22.5493 24.9037 22.5493 25.5118 21.9174L29.6152 17.6435C29.655 17.602 29.698 17.5638 29.7432 17.529C30.1943 17.1265 30.7689 16.9051 31.3628 16.9051C32.4156 16.9051 33.3598 17.6008 33.7101 18.6348C33.713 18.5759 33.7143 18.5174 33.7143 18.4585C33.7155 18.0126 33.6343 17.5709 33.4739 17.1575ZM31.3643 17.4823C31.2522 17.4822 31.1404 17.4923 31.0298 17.5125C31.0832 17.5511 31.1334 17.5946 31.1795 17.6425C31.3871 17.8584 31.5036 18.1516 31.5036 18.457C31.5036 18.7624 31.3871 19.0556 31.1795 19.2715L27.102 23.5194L27.0758 23.5464C27.0037 23.6214 26.9295 23.6928 26.8531 23.7606C25.4284 25.0849 23.5835 25.8162 21.674 25.8136C21.3891 25.8137 21.1043 25.7978 20.8211 25.766C22.5003 27.0656 24.7149 27.3614 26.6547 26.5451C26.7583 26.5012 26.8602 26.4547 26.9605 26.4056C27.5839 26.0999 28.1517 25.6836 28.6382 25.1754L32.6171 21.033L32.7435 20.9014C32.788 20.8549 32.8313 20.8073 32.873 20.7586C33.1482 20.4012 33.2982 19.9565 33.2982 19.4985C33.2982 18.3932 32.4248 17.4836 31.3637 17.4836C31.3631 17.4836 31.3628 17.4836 31.3624 17.4836L31.3643 17.4823ZM24.3644 24.697C23.3761 24.6879 22.4298 24.274 21.7315 23.5454L18.4231 20.0999C18.1273 19.7877 17.7244 19.6102 17.3033 19.6064C16.887 19.6046 16.4869 19.7768 16.1932 20.0841L15.2172 21.1015L14.8065 21.5292L13.8522 22.5235L13.4564 22.9357L12.8028 23.6181L12.2187 24.2268L12.1015 24.3492C11.8942 24.5652 11.6127 24.6867 11.3195 24.6867C11.0263 24.6867 10.7448 24.5652 10.5375 24.3492C10.4853 24.2952 10.4386 24.2357 10.3979 24.1719C10.3748 24.2972 10.3631 24.4246 10.3631 24.5522C10.3631 25.6576 11.236 26.5675 12.2974 26.5684C12.37 26.5684 12.4425 26.5643 12.5147 26.5559C12.9257 26.5076 13.3112 26.323 13.614 26.0295C13.6225 26.0213 13.6311 26.013 13.6393 26.0042L13.6645 25.9782L13.698 25.9433L14.7758 24.8204L16.5275 22.9959C16.9579 22.5575 17.657 22.5616 18.0826 23.0052L20.0411 25.0451C21.4824 25.3911 22.9914 25.2697 24.3644 24.697Z" fill="white"/>
<path d="M64.5916 6.84496V12.1904L59.1038 6.7998H58.0962V17.7506H60.9641V12.3903L66.435 17.7661H67.4295V6.84496H64.5916Z" fill="white"/>
<path d="M73.4277 17.7718V6.86621H70.6782V9.29638H70.6831V15.326H70.6782V17.7718H73.4277Z" fill="white"/>
<path d="M81.5732 6.71289H80.38L75.4961 17.3539L75.3096 17.7587H78.2076L78.8438 16.388H83.1229L83.759 17.7587H86.6571L86.4719 17.3539L81.5732 6.71289ZM79.7439 14.0042L80.9688 11.1376L82.2241 14.0042H79.7439Z" fill="white"/>
<path d="M97.6904 11.5416H92.5604V13.9562H94.867C94.3709 15.0001 93.6578 15.2962 92.5416 15.2962C90.8984 15.2962 89.844 14.1121 89.844 12.3049C89.844 10.6377 90.7897 9.26774 92.5416 9.26774C93.6421 9.26774 94.3557 9.64182 94.8049 10.5766H97.5338C97.0064 7.86583 94.7275 6.72848 92.5416 6.71289C89.7822 6.71289 86.9916 8.58238 86.9741 12.3077C86.9898 16.0311 89.78 17.885 92.5416 17.885C94.5414 17.885 96.6033 17.0126 97.3786 14.7379C97.7503 13.6765 97.7503 12.6322 97.6904 11.5416Z" fill="white"/>
<path d="M104.596 6.71289H103.403L98.5182 17.3539L98.333 17.7587H101.231L101.867 16.388H106.146L106.782 17.7587H109.681L109.494 17.3539L104.596 6.71289ZM102.766 14.0042L103.991 11.1376L105.247 14.0042H102.766Z" fill="white"/>
<path d="M117.145 6.86621V10.8226H113.796V6.86621H110.958V17.7718H113.796V13.3938H117.145V17.7718H119.982V6.86621H117.145Z" fill="white"/>
<path d="M122.056 12.3235C122.056 19.8793 133.187 19.8793 133.187 12.3235C133.187 4.7828 122.056 4.7828 122.056 12.3235ZM124.908 12.3235C124.908 8.39708 130.35 8.39708 130.35 12.3235C130.35 16.2807 124.908 16.2807 124.908 12.3235Z" fill="white"/>
<path d="M139.064 11.2719C138.087 11.1628 137.281 10.9922 137.343 10.1657C137.436 8.87254 140.351 8.74785 140.351 10.1969H142.986C143.048 5.49165 134.615 5.49165 134.708 10.1969C134.739 12.5647 136.289 13.3748 138.645 13.5462C139.729 13.6086 140.629 13.78 140.629 14.5453C140.629 15.8241 137.234 15.8074 137.234 14.4206H134.551C134.49 19.2194 143.326 19.1415 143.326 14.5609C143.327 11.8314 141.219 11.5037 139.064 11.2719Z" fill="white"/>
<path d="M144.293 6.86621V9.35872H146.958V17.7718H149.702V9.35872H152.352V6.86621H144.293Z" fill="white"/>
<path d="M156.796 15.2949V13.3786H160.485V10.9009H156.796V9.35832H160.812V6.86621H154.036V17.7718H160.95V15.2941L156.796 15.2949Z" fill="white"/>
<path d="M170.395 13.9081C173.14 12.0387 172.364 6.8818 168.1 6.86621H163.341V17.7718H166.116V14.5623H167.559L169.42 17.7718H172.768L172.519 17.3669L170.395 13.9081ZM168.1 12.0854H166.116V9.35872C166.768 9.35872 167.449 9.34314 168.1 9.35872C169.682 9.37431 169.604 12.0854 168.1 12.0854Z" fill="white"/>
<path d="M136 36.9669V27.1531H140.671C141.715 27.1531 142.521 27.3851 143.089 27.8491C143.666 28.3039 143.954 28.9164 143.954 29.6866C143.954 30.197 143.826 30.6425 143.57 31.0229C143.322 31.4034 142.974 31.6865 142.526 31.8721C143.066 32.0391 143.483 32.3222 143.776 32.7212C144.069 33.111 144.215 33.5982 144.215 34.1828C144.215 35.0459 143.909 35.728 143.295 36.2291C142.69 36.721 141.862 36.9669 140.808 36.9669H136ZM138.418 31.0508H140.218C140.676 31.0508 141.01 30.9673 141.22 30.8002C141.44 30.6332 141.55 30.378 141.55 30.0346C141.55 29.6912 141.44 29.4407 141.22 29.2829C141.01 29.1159 140.676 29.0324 140.218 29.0324H138.418V31.0508ZM138.418 35.0876H140.465C140.932 35.0876 141.271 34.9995 141.481 34.8232C141.701 34.6376 141.811 34.3638 141.811 34.0019C141.811 33.6399 141.701 33.3708 141.481 33.1945C141.271 33.0182 140.932 32.93 140.465 32.93H138.418V35.0876Z" fill="white"/>
<path d="M145.646 36.9669V27.1531H148.174V34.8371H152.488V36.9669H145.646Z" fill="white"/>
<path d="M157.817 37.12C156.837 37.12 155.976 36.9112 155.234 36.4936C154.501 36.0667 153.929 35.4728 153.517 34.7118C153.105 33.9508 152.898 33.0646 152.898 32.053C152.898 31.0322 153.1 30.146 153.503 29.3943C153.915 28.6333 154.492 28.044 155.234 27.6264C155.976 27.2088 156.837 27 157.817 27C158.797 27 159.653 27.2088 160.386 27.6264C161.128 28.044 161.705 28.6333 162.117 29.3943C162.529 30.146 162.735 31.0322 162.735 32.053C162.735 33.0646 162.529 33.9508 162.117 34.7118C161.705 35.4728 161.128 36.0667 160.386 36.4936C159.653 36.9112 158.797 37.12 157.817 37.12ZM157.817 34.9763C158.531 34.9763 159.09 34.7211 159.493 34.2107C159.905 33.691 160.111 32.9718 160.111 32.053C160.111 31.1343 159.909 30.4197 159.506 29.9093C159.104 29.3989 158.54 29.1437 157.817 29.1437C157.093 29.1437 156.53 29.3989 156.127 29.9093C155.724 30.4197 155.522 31.1343 155.522 32.053C155.522 32.9718 155.724 33.691 156.127 34.2107C156.53 34.7211 157.093 34.9763 157.817 34.9763Z" fill="white"/>
<path d="M169.173 37.12C168.065 37.12 167.122 36.9112 166.343 36.4936C165.574 36.076 164.988 35.4913 164.585 34.7396C164.182 33.988 163.98 33.111 163.98 32.1087C163.98 31.0693 164.191 30.1692 164.612 29.4082C165.043 28.6379 165.656 28.044 166.453 27.6264C167.25 27.2088 168.211 27 169.338 27C170.016 27 170.661 27.0928 171.275 27.2784C171.889 27.4547 172.388 27.696 172.773 28.0023L172.003 29.9789C171.582 29.7005 171.156 29.501 170.726 29.3804C170.295 29.2504 169.837 29.1855 169.352 29.1855C168.427 29.1855 167.735 29.436 167.277 29.9372C166.829 30.4383 166.604 31.1621 166.604 32.1087C166.604 33.0553 166.833 33.7699 167.291 34.2524C167.749 34.735 168.427 34.9763 169.324 34.9763C169.746 34.9763 170.217 34.9113 170.739 34.7814V33.2363H168.802V31.4406H172.8V36.3683C172.287 36.6096 171.715 36.7952 171.083 36.9251C170.451 37.055 169.814 37.12 169.173 37.12Z" fill="white"/>
</svg>
