<svg width="255" height="40" viewBox="0 0 255 40" fill="none" xmlns="http://www.w3.org/2000/svg">
<path d="M24.5195 9.52953C21.439 8.25383 17.9779 8.25383 14.8974 9.52953C14.6985 9.61345 14.4998 9.70337 14.3009 9.79594C13.8208 10.0263 13.3558 10.2875 12.9091 10.5779C12.1569 11.0661 11.4586 11.6335 10.826 12.2703L2.23323 20.9051C0.927706 22.2163 0.193359 23.997 0.193359 25.8519C0.193359 29.6884 3.33481 32.8454 7.15242 32.8454C7.15329 32.8454 7.15408 32.8454 7.15494 32.8454C7.23911 32.8454 7.32329 32.8454 7.40746 32.8408C5.35519 32.084 3.98307 30.1092 3.98307 27.9123C3.98307 26.4766 4.56909 25.1019 5.6034 24.1114L12.7885 16.8927L13.5507 16.1235L13.8085 15.8644L14.1014 15.5693C14.2804 15.3917 14.4658 15.2221 14.6575 15.0604C17.6272 12.4559 21.4395 11.022 25.3811 11.0268C26.0234 11.0265 26.6651 11.0639 27.3031 11.1387C26.4481 10.484 25.5124 9.94321 24.5195 9.52953ZM53.6395 12.9404C52.202 9.38552 48.11 7.64712 44.5715 9.08793L44.482 9.12523C44.1173 9.27922 43.7665 9.46465 43.4335 9.67939C43.0117 9.95094 42.6204 10.2676 42.2664 10.6239L37.0093 15.9077L36.2504 16.6676C36.2272 16.6903 36.2041 16.7129 36.1802 16.7343C35.2706 17.5757 33.8434 17.5461 32.9691 16.6676L28.9362 12.6147C25.92 11.8877 22.7536 12.1048 19.8636 13.2368C21.9117 13.2717 23.8675 14.1085 25.3121 15.568L32.2865 22.5762C33.5623 23.8553 35.6586 23.8553 36.9345 22.5762L45.5438 13.9242C45.6273 13.8402 45.7174 13.7628 45.8122 13.6924C46.7587 12.8775 47.9643 12.4294 49.2103 12.4294C51.4192 12.4294 53.4002 13.8377 54.1353 15.931C54.1412 15.8118 54.1439 15.6932 54.1439 15.574C54.1465 14.6713 53.9749 13.7766 53.6382 12.9397L53.6395 12.9404ZM49.2135 13.5978C48.9783 13.5976 48.7436 13.6181 48.5117 13.6591C48.6237 13.7371 48.729 13.8252 48.8258 13.9222C49.2613 14.3592 49.5058 14.9527 49.5058 15.571C49.5058 16.1892 49.2613 16.7827 48.8258 17.2198L40.2708 25.8192L40.2158 25.8738C40.0647 26.0257 39.9089 26.1703 39.7486 26.3075C36.7595 28.9883 32.8888 30.4688 28.8825 30.4636C28.2847 30.4637 27.6873 30.4315 27.093 30.3671C30.6162 32.9981 35.2626 33.5969 39.3324 31.9443C39.5497 31.8555 39.7636 31.7613 39.9739 31.6619C41.282 31.0432 42.4731 30.2004 43.4939 29.1715L51.842 20.7859L52.1072 20.5194C52.2006 20.4253 52.2914 20.3289 52.3789 20.2304C52.9562 19.5069 53.271 18.6066 53.271 17.6794C53.271 15.4418 51.4384 13.6005 49.2122 13.6005C49.2109 13.6005 49.2103 13.6005 49.2096 13.6005L49.2135 13.5978ZM34.5272 28.2031C32.4536 28.1846 30.4682 27.3468 29.0031 25.8718L22.0619 18.8969C21.4413 18.2649 20.596 17.9054 19.7124 17.8979C18.8389 17.8942 17.9995 18.2427 17.3834 18.8649L15.3355 20.9244L14.4739 21.7902L12.4717 23.8031L11.6412 24.6376L10.27 26.019L9.04447 27.2512L8.79864 27.499C8.36372 27.9363 7.77312 28.1822 7.15792 28.1822C6.54275 28.1822 5.95215 27.9363 5.51725 27.499C5.40775 27.3896 5.30967 27.2693 5.2243 27.14C5.17578 27.3938 5.15139 27.6516 5.15139 27.9099C5.15139 30.1477 6.98276 31.9898 9.20955 31.9916C9.36188 31.9916 9.51406 31.9831 9.66549 31.9662C10.5279 31.8684 11.3366 31.4947 11.972 30.9006C11.9899 30.8839 12.0078 30.8672 12.025 30.8493L12.078 30.7966L12.1482 30.7261L14.4096 28.4528L18.0847 24.7595C18.9877 23.872 20.4546 23.8803 21.3475 24.7782L25.4566 28.9077C28.4805 29.6082 31.6465 29.3624 34.5272 28.2031Z" fill="white"/>
<path d="M74.5131 11.648V20.5571L65.3669 11.5728H63.6875V29.824H68.4673V20.8902L77.5854 29.8499H79.2429V11.648H74.5131Z" fill="white"/>
<path d="M89.2398 29.8591V11.6831H84.6572V15.7334H84.6654V25.7828H84.6572V29.8591H89.2398Z" fill="white"/>
<path d="M102.815 11.4268H100.827L92.6869 29.1618L92.376 29.8365H97.2061L98.2663 27.5519H105.398L106.458 29.8365H111.288L110.98 29.1618L102.815 11.4268ZM99.7665 23.5789L101.808 18.8013L103.9 23.5789H99.7665Z" fill="white"/>
<path d="M129.677 19.4747H121.127V23.499H124.972C124.145 25.2387 122.956 25.7323 121.096 25.7323C118.357 25.7323 116.6 23.7588 116.6 20.7468C116.6 17.9681 118.176 15.6848 121.096 15.6848C122.93 15.6848 124.12 16.3083 124.868 17.8662H129.416C128.537 13.3483 124.739 11.4527 121.096 11.4268C116.497 11.4268 111.846 14.5426 111.817 20.7515C111.843 26.9571 116.493 30.047 121.096 30.047C124.429 30.047 127.865 28.593 129.158 24.8018C129.777 23.0328 129.777 21.2923 129.677 19.4747Z" fill="white"/>
<path d="M141.187 11.4268H139.198L131.058 29.1618L130.749 29.8365H135.579L136.639 27.5519H143.771L144.831 29.8365H149.662L149.35 29.1618L141.187 11.4268ZM138.138 23.5789L140.18 18.8013L142.272 23.5789H138.138Z" fill="white"/>
<path d="M162.102 11.6831V18.2771H156.521V11.6831H151.792V29.8591H156.521V22.5624H162.102V29.8591H166.831V11.6831H162.102Z" fill="white"/>
<path d="M170.287 20.7789C170.287 33.372 188.839 33.372 188.839 20.7789C188.839 8.21108 170.287 8.21108 170.287 20.7789ZM175.041 20.7789C175.041 14.2349 184.11 14.2349 184.11 20.7789C184.11 27.3742 175.041 27.3742 175.041 20.7789Z" fill="white"/>
<path d="M198.634 19.0263C197.005 18.8445 195.662 18.5601 195.765 17.1826C195.92 15.0273 200.778 14.8195 200.778 17.2346H205.17C205.273 9.39249 191.218 9.39249 191.373 17.2346C191.424 21.181 194.009 22.5311 197.934 22.8168C199.742 22.9207 201.241 23.2064 201.241 24.482C201.241 26.6133 195.583 26.5854 195.583 24.2741H191.112C191.01 32.2721 205.737 32.1423 205.737 24.5079C205.739 19.9588 202.224 19.4126 198.634 19.0263Z" fill="white"/>
<path d="M207.35 11.6831V15.8373H211.79V29.8591H216.363V15.8373H220.781V11.6831H207.35Z" fill="white"/>
<path d="M228.186 25.7309V22.5371H234.335V18.4076H228.186V15.8366H234.879V11.6831H223.587V29.8591H235.11V25.7296L228.186 25.7309Z" fill="white"/>
<path d="M250.853 23.4197C255.426 20.3039 254.134 11.7091 247.028 11.6831H239.095V29.8591H243.721V24.51H246.125L249.227 29.8591H254.807L254.393 29.1843L250.853 23.4197ZM247.028 20.3818H243.721V15.8373C244.807 15.8373 245.942 15.8113 247.028 15.8373C249.664 15.8633 249.535 20.3818 247.028 20.3818Z" fill="white"/>
</svg>
