<svg width="25" height="24" viewBox="0 0 25 24" fill="none" xmlns="http://www.w3.org/2000/svg">
<path d="M16.0402 11.29L10.3802 5.64004C10.2873 5.54631 10.1767 5.47191 10.0548 5.42115C9.93294 5.37038 9.80224 5.34424 9.67023 5.34424C9.53821 5.34424 9.40751 5.37038 9.28565 5.42115C9.16379 5.47191 9.05319 5.54631 8.96023 5.64004C8.77398 5.8274 8.66943 6.08085 8.66943 6.34504C8.66943 6.60922 8.77398 6.86267 8.96023 7.05004L13.9102 12.05L8.96023 17C8.77398 17.1874 8.66943 17.4409 8.66943 17.705C8.66943 17.9692 8.77398 18.2227 8.96023 18.41C9.05284 18.5045 9.16329 18.5797 9.28516 18.6312C9.40704 18.6827 9.53792 18.7095 9.67023 18.71C9.80253 18.7095 9.93342 18.6827 10.0553 18.6312C10.1772 18.5797 10.2876 18.5045 10.3802 18.41L16.0402 12.76C16.1417 12.6664 16.2227 12.5527 16.2781 12.4262C16.3336 12.2997 16.3622 12.1631 16.3622 12.025C16.3622 11.8869 16.3336 11.7503 16.2781 11.6238C16.2227 11.4973 16.1417 11.3837 16.0402 11.29Z" fill="#29384E"/>
</svg>
