<svg width="25" height="24" viewBox="0 0 25 24" fill="none" xmlns="http://www.w3.org/2000/svg">
<path d="M12.5 10C12.1044 10 11.7178 10.1173 11.3889 10.3371C11.06 10.5568 10.8036 10.8692 10.6522 11.2346C10.5009 11.6001 10.4613 12.0022 10.5384 12.3902C10.6156 12.7781 10.8061 13.1345 11.0858 13.4142C11.3655 13.6939 11.7219 13.8844 12.1098 13.9616C12.4978 14.0387 12.8999 13.9991 13.2654 13.8478C13.6308 13.6964 13.9432 13.44 14.1629 13.1111C14.3827 12.7822 14.5 12.3956 14.5 12C14.5 11.4696 14.2893 10.9609 13.9142 10.5858C13.5391 10.2107 13.0304 10 12.5 10ZM5.5 10C5.10444 10 4.71776 10.1173 4.38886 10.3371C4.05996 10.5568 3.80362 10.8692 3.65224 11.2346C3.50087 11.6001 3.46126 12.0022 3.53843 12.3902C3.6156 12.7781 3.80608 13.1345 4.08579 13.4142C4.36549 13.6939 4.72186 13.8844 5.10982 13.9616C5.49778 14.0387 5.89992 13.9991 6.26537 13.8478C6.63082 13.6964 6.94318 13.44 7.16294 13.1111C7.3827 12.7822 7.5 12.3956 7.5 12C7.5 11.4696 7.28929 10.9609 6.91421 10.5858C6.53914 10.2107 6.03043 10 5.5 10ZM19.5 10C19.1044 10 18.7178 10.1173 18.3889 10.3371C18.06 10.5568 17.8036 10.8692 17.6522 11.2346C17.5009 11.6001 17.4613 12.0022 17.5384 12.3902C17.6156 12.7781 17.8061 13.1345 18.0858 13.4142C18.3655 13.6939 18.7219 13.8844 19.1098 13.9616C19.4978 14.0387 19.8999 13.9991 20.2654 13.8478C20.6308 13.6964 20.9432 13.44 21.1629 13.1111C21.3827 12.7822 21.5 12.3956 21.5 12C21.5 11.4696 21.2893 10.9609 20.9142 10.5858C20.5391 10.2107 20.0304 10 19.5 10Z" fill="#29384E"/>
</svg>
